<?xml version="1.0" standalone="no"?>
<!DOCTYPE svg PUBLIC "-//W3C//DTD SVG 20010904//EN"
 "http://www.w3.org/TR/2001/REC-SVG-20010904/DTD/svg10.dtd">
<svg version="1.0" xmlns="http://www.w3.org/2000/svg"
 width="500.000000pt" height="500.000000pt" viewBox="0 0 500.000000 500.000000"
 preserveAspectRatio="xMidYMid meet">
<metadata>
Created by potrace 1.11, written by Peter Selinger 2001-2013
</metadata>
<g transform="translate(0.000000,500.000000) scale(0.100000,-0.100000)"
fill="#000000" stroke="none">
<path d="M0 2500 l0 -2500 2500 0 2500 0 0 2500 0 2500 -2500 0 -2500 0 0
-2500z m2555 1749 c67 -59 65 -44 65 -511 l1 -423 42 -20 c79 -37 77 -24 77
-577 0 -375 -3 -488 -12 -488 -7 0 -29 -17 -50 -37 l-38 -37 0 -106 c0 -69 -4
-110 -12 -118 -17 -17 -339 -17 -356 0 -8 8 -12 51 -13 122 l0 111 -44 35 -44
35 0 490 c-1 472 0 491 19 523 11 18 31 38 45 44 l25 11 0 426 c0 423 0 426
23 466 36 64 77 85 163 85 68 0 76 -2 109 -31z m83 -2361 c17 -17 17 -239 0
-256 -8 -8 -64 -12 -185 -12 l-173 0 -11 28 c-16 42 -8 230 11 242 23 15 343
13 358 -2z m0 -320 c17 -17 17 -239 0 -256 -8 -8 -63 -12 -179 -12 -205 0
-199 -4 -199 137 0 50 4 103 10 117 l10 26 173 0 c121 0 177 -4 185 -12z m9
-314 c3 -9 -6 -28 -26 -48 -17 -17 -31 -38 -31 -46 0 -8 14 -63 31 -122 l30
-108 -83 -100 c-57 -68 -90 -100 -104 -100 -15 0 -48 30 -108 99 l-85 99 35
123 35 123 -38 32 c-33 27 -36 34 -24 48 20 24 358 24 368 0z"/>
</g>
</svg>
